<?xml version="1.0" encoding="utf-8"?>
<!-- Generator: Adobe Illustrator 16.0.0, SVG Export Plug-In . SVG Version: 6.00 Build 0)  -->
<!DOCTYPE svg PUBLIC "-//W3C//DTD SVG 1.1//EN" "http://www.w3.org/Graphics/SVG/1.1/DTD/svg11.dtd">
<svg version="1.1" id="Ebene_2" xmlns="http://www.w3.org/2000/svg" xmlns:xlink="http://www.w3.org/1999/xlink" x="0px" y="0px"
	 width="200px" height="200px" viewBox="0 0 200 200" enable-background="new 0 0 200 200" xml:space="preserve">
<g>
	<path d="M100,9c50.178,0,91,40.822,91,91c0,50.178-40.822,91-91,91S9,150.178,9,100C9,49.822,49.822,9,100,9 M100,0
		C44.771,0,0,44.772,0,100c0,55.229,44.771,100,100,100s100-44.771,100-100C200,44.772,155.229,0,100,0L100,0z"/>
</g>
<path d="M116.5,149.706c0,9.108-7.4,16.5-16.5,16.5c-9.114,0-16.5-7.392-16.5-16.5s7.386-16.5,16.5-16.5
	C109.1,133.206,116.5,140.598,116.5,149.706z"/>
<path d="M62,99.636c-11.06,0-21.069-4.486-28.309-11.738C35.311,102.1,47.365,113.136,62,113.136
	c14.637,0,26.689-11.036,28.309-25.238C83.068,95.149,73.06,99.636,62,99.636z"/>
<path d="M138,99.636c-11.06,0-21.068-4.486-28.309-11.738c1.619,14.202,13.674,25.238,28.309,25.238
	c14.637,0,26.689-11.036,28.309-25.238C159.068,95.149,149.06,99.636,138,99.636z"/>
</svg>
